<?xml version="1.0" encoding="iso-8859-1"?>
<!-- Generator: Adobe Illustrator 19.0.0, SVG Export Plug-In . SVG Version: 6.00 Build 0)  -->
<svg version="1.1" id="Capa_1" xmlns="http://www.w3.org/2000/svg" xmlns:xlink="http://www.w3.org/1999/xlink" x="0px" y="0px"
	 viewBox="0 0 512 512" style="enable-background:new 0 0 512 512;" xml:space="preserve">
<g transform="matrix(1.25 0 0 -1.25 0 45)">
	<path style="fill:#E1E8ED;" d="M204.8,36C91.7,36,0-55.7,0-168.8s91.7-204.8,204.8-204.8s204.8,91.7,204.8,204.8S317.9,36,204.8,36
		z"/>
	<g>
		<path style="fill:#B3BEC4;" d="M307.2-168.8c0,68.8,20.4,116.4,54.7,131.4c-5.1,6.1-10.5,11.8-16.2,17.3
			c-33.8-18.8-61.2-64.2-61.2-148.7s27.4-129.9,61.2-148.7c5.7,5.4,11.1,11.2,16.2,17.3C327.6-285.2,307.2-237.6,307.2-168.8z"/>
		<path style="fill:#B3BEC4;" d="M47.7-37.4c34.3-15,54.7-62.6,54.7-131.4S82-285.2,47.7-300.2c5.1-6.1,10.5-11.8,16.2-17.3
			c33.8,18.8,61.2,64.2,61.2,148.7S97.8-38.9,64-20.1C58.2-25.6,52.8-31.3,47.7-37.4z"/>
	</g>
	<g>
		<path style="fill:#DD2E44;" d="M103.9-21.8c-6.2,1.2-12.2-2.8-13.4-8.9c-5.2-26-30.9-26.8-35.8-25.9c-6.2,1.2-12.1-2.9-13.3-9.1
			c-1.1-6.2,2.9-12.1,9.1-13.3c2.2-0.4,4.7-0.6,7.4-0.6c19.2,0,48.3,11.3,54.9,44.4C114.1-29,110.1-23.1,103.9-21.8z"/>
		<path style="fill:#DD2E44;" d="M136.5-74.2c-5.5,3.2-12.4,1.4-15.5-4c-14.9-25.7-44-26.1-44-26.1c-6.3-0.3-11.1-4.4-10.8-10.7
			c0.3-6.1,5.1-9.8,11.1-9.8c0.2,0,42.3-1.6,63.4,34.9C143.8-84.4,142-77.3,136.5-74.2z"/>
		<path style="fill:#DD2E44;" d="M151.8-159.3c3.4,5.3,1.9,12.3-3.4,15.7c-5.3,3.4-12.3,1.9-15.7-3.4c-9.2-14.2-33-16-42.4-11.5
			c-5.7,2.7-12.5,0.3-15.2-5.4s-0.3-12.5,5.4-15.2c5.8-2.8,13.6-4.3,21.9-4.3C120.2-183.4,140.8-176.4,151.8-159.3z"/>
		<path style="fill:#DD2E44;" d="M143.5-226.9c-2.5,5.8-9.1,8.5-14.9,6c-20.8-8.9-40.8,7.1-43,8.9c-4.8,4-12,3.4-16-1.5
			c-4-4.8-3.4-12,1.5-16c10.6-8.8,27-16.8,44.7-16.8c7.2,0,14.5,1.3,21.8,4.4C143.2-239.4,145.9-232.7,143.5-226.9z"/>
		<path style="fill:#DD2E44;" d="M67.5-259.7c-3,5.5-10,7.7-15.5,4.7c-5.5-3.1-7.5-9.4-4.4-14.9c9.7-17.5,34.5-35.4,63-35.4h0.3
			c6.1,0,11.2,3.9,11.4,10.1c0.2,6.3-4.8,10.5-11.1,10.7C90.3-284,73.1-269.6,67.5-259.7z"/>
		<path style="fill:#DD2E44;" d="M360.5-250.1c-18,3.4-54.8-6-62.3-43.8c-1.2-6.2,2.8-12.2,8.9-13.4c0.8-0.2,1.5-0.2,2.2-0.2
			c5.3,0,10.1,3.7,11.1,9.1c5.2,26,31,26.8,35.8,25.9c6.3-1.2,12.1,2.9,13.3,9.1C370.7-257.2,366.7-251.2,360.5-250.1z"/>
		<path style="fill:#DD2E44;" d="M333-200.8l-1.3-0.1c-16-0.7-40.3-1.9-61.4-38.3c-3.2-5.4-1.3-12.4,4.2-15.5c1.8-1,3.7-1.5,5.7-1.5
			c3.9,0,7.8,2,9.9,5.7c14.8,25.7,29,26.3,42.7,27l1.3,0.1c6.3,0.3,11.1,5.6,10.8,11.9C344.6-205.4,339.1-200.4,333-200.8z"/>
		<path style="fill:#DD2E44;" d="M259.2-169.8c-3.4-5.3-1.9-12.3,3.4-15.7c1.9-1.2,4-1.8,6.1-1.8c3.7,0,7.4,1.8,9.6,5.2
			c9.2,14.2,33,16,42.5,11.5c5.7-2.7,12.5-0.3,15.1,5.4c2.7,5.7,0.3,12.5-5.4,15.2C312.2-141.3,275.3-144.7,259.2-169.8z"/>
		<path style="fill:#DD2E44;" d="M267.6-102.1c2.5-5.8,9.1-8.5,14.9-6c20.8,8.8,40.8-7.1,43-8.9c2.1-1.8,4.7-2.6,7.3-2.6
			c3.3,0,6.5,1.4,8.8,4.1c4,4.8,3.4,12-1.5,16c-14.9,12.4-41.2,23.1-66.5,12.4C267.8-89.7,265.1-96.4,267.6-102.1z"/>
		<path style="fill:#DD2E44;" d="M343.5-69.1c2.1-3.7,6-5.8,10-5.8c1.9,0,3.8,0.6,5.5,1.6c5.5,3,7.5,10.1,4.4,15.7
			c-9.7,17.5-34.5,36.8-63,36.8h-0.3c-6.1,0-11.2-5.2-11.4-11.4c-0.2-6.3,4.8-11.9,11.1-12C320.8-44.9,338-59.2,343.5-69.1z"/>
	</g>
</g>
<g>
</g>
<g>
</g>
<g>
</g>
<g>
</g>
<g>
</g>
<g>
</g>
<g>
</g>
<g>
</g>
<g>
</g>
<g>
</g>
<g>
</g>
<g>
</g>
<g>
</g>
<g>
</g>
<g>
</g>
</svg>
