<svg xmlns="http://www.w3.org/2000/svg" viewBox="0 0 460 460"><circle cx="230" cy="230" r="230" fill="#E28138"/><path d="M460 220h-88.3c1.4-53.3 14-103 34.7-137.6 -4.4-5.3-9.1-10.4-14-15.3 -24.3 37.9-39.2 93.6-40.7 152.9H240V0.2c-3.3-0.1-6.6-0.2-10-0.2s-6.7 0.1-10 0.2V220H108.4c-1.5-59.3-16.4-115-40.7-152.9 -4.9 4.9-9.6 10-14 15.3C74.3 117 87 166.7 88.4 220H0v20h88.3c-1.4 53.5-14 103-34.8 137.5 4.4 5.3 9.1 10.4 14 15.3 24.4-37.8 39.3-93.3 40.8-152.8h111.7v219.8c3.3 0.1 6.6 0.2 10 0.2s6.7-0.1 10-0.2V240h111.7c1.5 59.5 16.4 115 40.8 152.8 4.9-4.9 9.6-10 14-15.3C385.7 343 373.1 293.5 371.7 240H460V220z" fill="#FFF"/><path d="M230 0v460c127 0 230-103 230-230S357 0 230 0z" style="fill:#5B5B5F;opacity:0.3"/></svg>