<?xml version="1.0" encoding="iso-8859-1"?>
<!-- Generator: Adobe Illustrator 16.0.0, SVG Export Plug-In . SVG Version: 6.00 Build 0)  -->
<!DOCTYPE svg PUBLIC "-//W3C//DTD SVG 1.1//EN" "http://www.w3.org/Graphics/SVG/1.1/DTD/svg11.dtd">
<svg xmlns="http://www.w3.org/2000/svg" xmlns:xlink="http://www.w3.org/1999/xlink" version="1.1" id="Capa_1" x="0px" y="0px" width="512px" height="512px" viewBox="0 0 36.852 36.852" style="enable-background:new 0 0 36.852 36.852;" xml:space="preserve">
<g>
	<path d="M29.428,14.166l1.743-7.262c0.108,0.011,0.215,0.033,0.327,0.033c1.792,0,3.25-1.458,3.25-3.25s-1.458-3.25-3.25-3.25   c-1.793,0-3.25,1.458-3.25,3.25c0,1.33,0.805,2.473,1.951,2.976l-1.725,7.184c-0.996-0.282-2.044-0.444-3.13-0.444   c-3.079,0-5.872,1.222-7.938,3.198l-5.935-6.674c1.081-0.962,1.776-2.348,1.776-3.906c0-2.895-2.355-5.25-5.25-5.25   c-2.895,0-5.25,2.355-5.25,5.25c0,2.896,2.355,5.25,5.25,5.25c0.976,0,1.879-0.285,2.662-0.751l6.053,6.807   c-1.748,1.986-2.823,4.573-2.866,7.411l-5.362,0.416C8.487,25.108,8.5,25.065,8.5,25.019c0-2.344-1.906-4.25-4.25-4.25   c-2.345,0-4.25,1.906-4.25,4.25c0,2.343,1.905,4.25,4.25,4.25c1.942,0,3.565-1.317,4.071-3.1l5.561-0.435   c0.427,5.959,5.398,10.681,11.466,10.681c6.346,0,11.504-5.162,11.504-11.507C36.85,20.004,33.759,15.818,29.428,14.166z    M29.248,3.686c0-1.241,1.01-2.25,2.25-2.25s2.25,1.009,2.25,2.25c0,1.241-1.01,2.25-2.25,2.25S29.248,4.926,29.248,3.686z    M3.748,6.02c0-2.343,1.906-4.25,4.25-4.25c2.344,0,4.25,1.907,4.25,4.25c0,2.343-1.906,4.25-4.25,4.25   C5.654,10.27,3.748,8.364,3.748,6.02z M4.248,28.27c-1.792,0-3.25-1.457-3.25-3.25c0-1.791,1.458-3.25,3.25-3.25   c1.792,0,3.25,1.459,3.25,3.25C7.498,26.813,6.04,28.27,4.248,28.27z M25.346,35.176c-5.67,0-10.266-4.598-10.266-10.268   c0-5.668,4.596-10.266,10.266-10.266c5.668,0,10.264,4.598,10.264,10.266C35.609,30.579,31.014,35.176,25.346,35.176z    M25.287,24.092h-0.943v-2.1h0.943c0.551,0,0.934,0.033,1.146,0.104c0.214,0.066,0.38,0.184,0.49,0.342   c0.112,0.16,0.172,0.355,0.172,0.58c0,0.219-0.062,0.412-0.18,0.578c-0.121,0.166-0.298,0.291-0.533,0.373   S25.781,24.092,25.287,24.092z M27.084,25.893c0.119,0.18,0.178,0.395,0.178,0.648c0,0.301-0.086,0.559-0.254,0.771   s-0.371,0.354-0.611,0.424c-0.242,0.065-0.545,0.104-0.908,0.104h-0.629c-0.209,0-0.338-0.014-0.385-0.037   c-0.047-0.021-0.082-0.062-0.102-0.119c-0.018-0.045-0.027-0.197-0.029-0.463v-1.863h1.113c0.488,0,0.85,0.045,1.09,0.137   C26.787,25.584,26.963,25.717,27.084,25.893z M25.346,15.722c-5.074,0-9.188,4.114-9.188,9.188s4.114,9.188,9.188,9.188   c5.072,0,9.186-4.111,9.186-9.188C34.531,19.836,30.418,15.722,25.346,15.722z M29.082,28.032c-0.273,0.387-0.662,0.68-1.166,0.881   c-0.184,0.072-0.4,0.133-0.645,0.182v1.537h-1.459v-1.418c-0.035,0-0.07,0.002-0.107,0.002h-0.828v1.416h-1.459v-1.416h-2.225   v-1.189h0.34c0.229,0,0.379-0.021,0.459-0.061s0.137-0.094,0.17-0.166s0.049-0.232,0.049-0.484v-4.803   c0-0.254-0.016-0.418-0.049-0.488c-0.033-0.068-0.09-0.125-0.17-0.166s-0.23-0.062-0.459-0.062h-0.34v-1.19h2.225V19.19h1.459   v1.416h0.936V19.19h1.459v1.52c0.215,0.043,0.412,0.092,0.578,0.16c0.428,0.176,0.758,0.426,0.988,0.752   c0.227,0.328,0.342,0.688,0.342,1.078c0,0.283-0.061,0.555-0.182,0.809c-0.119,0.256-0.297,0.479-0.525,0.676   c-0.229,0.195-0.531,0.357-0.908,0.484c0.404,0.102,0.713,0.217,0.926,0.34c0.311,0.174,0.553,0.416,0.734,0.727   c0.182,0.312,0.273,0.656,0.273,1.039C29.498,27.227,29.357,27.649,29.082,28.032z M31.498,5.228c-0.852,0-1.541-0.69-1.541-1.542   c0-0.851,0.689-1.541,1.541-1.541s1.543,0.69,1.543,1.541C33.041,4.537,32.35,5.228,31.498,5.228z M11.039,6.02   c0,1.68-1.361,3.042-3.041,3.042c-1.68,0-3.043-1.362-3.043-3.042c0-1.681,1.363-3.042,3.043-3.042   C9.678,2.978,11.039,4.34,11.039,6.02z M6.289,25.02c0,1.129-0.914,2.043-2.041,2.043c-1.127,0-2.043-0.916-2.043-2.043   s0.916-2.041,2.043-2.041C5.375,22.979,6.289,23.893,6.289,25.02z" fill="#071f5e"/>
</g>
<g>
</g>
<g>
</g>
<g>
</g>
<g>
</g>
<g>
</g>
<g>
</g>
<g>
</g>
<g>
</g>
<g>
</g>
<g>
</g>
<g>
</g>
<g>
</g>
<g>
</g>
<g>
</g>
<g>
</g>
</svg>
