<svg xmlns="http://www.w3.org/2000/svg" width="512" height="512" viewBox="0 0 36.9 36.9"><path d="M29.4 14.2l1.7-7.3c0.1 0 0.2 0 0.3 0 1.8 0 3.3-1.5 3.3-3.2s-1.5-3.2-3.2-3.2c-1.8 0-3.2 1.5-3.2 3.3 0 1.3 0.8 2.5 2 3l-1.7 7.2c-1-0.3-2-0.4-3.1-0.4 -3.1 0-5.9 1.2-7.9 3.2l-5.9-6.7c1.1-1 1.8-2.3 1.8-3.9 0-2.9-2.4-5.2-5.2-5.2 -2.9 0-5.2 2.4-5.2 5.3 0 2.9 2.4 5.3 5.3 5.3 1 0 1.9-0.3 2.7-0.8l6.1 6.8c-1.7 2-2.8 4.6-2.9 7.4l-5.4 0.4C8.5 25.1 8.5 25.1 8.5 25c0-2.3-1.9-4.2-4.2-4.2 -2.3 0-4.2 1.9-4.2 4.3 0 2.3 1.9 4.3 4.3 4.3 1.9 0 3.6-1.3 4.1-3.1l5.6-0.4c0.4 6 5.4 10.7 11.5 10.7 6.3 0 11.5-5.2 11.5-11.5C36.9 20 33.8 15.8 29.4 14.2zM29.2 3.7c0-1.2 1-2.2 2.3-2.2s2.3 1 2.3 2.3c0 1.2-1 2.3-2.2 2.3S29.2 4.9 29.2 3.7zM3.7 6c0-2.3 1.9-4.2 4.3-4.2 2.3 0 4.3 1.9 4.3 4.3 0 2.3-1.9 4.3-4.2 4.3C5.7 10.3 3.7 8.4 3.7 6zM4.2 28.3c-1.8 0-3.2-1.5-3.2-3.2 0-1.8 1.5-3.2 3.3-3.2 1.8 0 3.3 1.5 3.3 3.3C7.5 26.8 6 28.3 4.2 28.3zM25.3 35.2c-5.7 0-10.3-4.6-10.3-10.3 0-5.7 4.6-10.3 10.3-10.3 5.7 0 10.3 4.6 10.3 10.3C35.6 30.6 31 35.2 25.3 35.2zM25.3 24.1h-0.9v-2.1h0.9c0.6 0 0.9 0 1.1 0.1 0.2 0.1 0.4 0.2 0.5 0.3 0.1 0.2 0.2 0.4 0.2 0.6 0 0.2-0.1 0.4-0.2 0.6 -0.1 0.2-0.3 0.3-0.5 0.4S25.8 24.1 25.3 24.1zM27.1 25.9c0.1 0.2 0.2 0.4 0.2 0.6 0 0.3-0.1 0.6-0.3 0.8s-0.4 0.4-0.6 0.4c-0.2 0.1-0.5 0.1-0.9 0.1h-0.6c-0.2 0-0.3 0-0.4 0 0 0-0.1-0.1-0.1-0.1 0 0 0-0.2 0-0.5v-1.9h1.1c0.5 0 0.9 0 1.1 0.1C26.8 25.6 27 25.7 27.1 25.9zM25.3 15.7c-5.1 0-9.2 4.1-9.2 9.2s4.1 9.2 9.2 9.2c5.1 0 9.2-4.1 9.2-9.2C34.5 19.8 30.4 15.7 25.3 15.7zM29.1 28c-0.3 0.4-0.7 0.7-1.2 0.9 -0.2 0.1-0.4 0.1-0.6 0.2v1.5h-1.5v-1.4c0 0-0.1 0-0.1 0h-0.8v1.4h-1.5v-1.4h-2.2v-1.2h0.3c0.2 0 0.4 0 0.5-0.1s0.1-0.1 0.2-0.2 0-0.2 0-0.5v-4.8c0-0.3 0-0.4 0-0.5 0-0.1-0.1-0.1-0.2-0.2s-0.2-0.1-0.5-0.1h-0.3v-1.2h2.2V19.2h1.5v1.4h0.9V19.2h1.5v1.5c0.2 0 0.4 0.1 0.6 0.2 0.4 0.2 0.8 0.4 1 0.8 0.2 0.3 0.3 0.7 0.3 1.1 0 0.3-0.1 0.6-0.2 0.8 -0.1 0.3-0.3 0.5-0.5 0.7 -0.2 0.2-0.5 0.4-0.9 0.5 0.4 0.1 0.7 0.2 0.9 0.3 0.3 0.2 0.6 0.4 0.7 0.7 0.2 0.3 0.3 0.7 0.3 1C29.5 27.2 29.4 27.6 29.1 28zM31.5 5.2c-0.9 0-1.5-0.7-1.5-1.5 0-0.9 0.7-1.5 1.5-1.5s1.5 0.7 1.5 1.5C33 4.5 32.4 5.2 31.5 5.2zM11 6c0 1.7-1.4 3-3 3 -1.7 0-3-1.4-3-3 0-1.7 1.4-3 3-3C9.7 3 11 4.3 11 6zM6.3 25c0 1.1-0.9 2-2 2 -1.1 0-2-0.9-2-2s0.9-2 2-2C5.4 23 6.3 23.9 6.3 25z" fill="#071f5e"/></svg>