<svg xmlns="http://www.w3.org/2000/svg" viewBox="0 0 57.5 57.5" width="512" height="512"><style>.a{fill:#edb90e;}</style><path d="M41.5 21c-5 0-9 4-9 9s4 9 9 9 9-4 9-9S46.5 21 41.5 21z" class="a"/><path d="M12.4 51.6l-6.5-6.5 1.1-1.1 6.5 6.5L12.4 51.6zM56.4 11.9L45.7 1.2c-1.5-1.5-4-1.5-5.5 0L11.8 29.5c-1 1-1.3 2.5-0.8 3.8 0.5 1.4 1.8 2.3 3.5 2.5 0.2 0 0.2 0.1 0.3 0.2 0 0.1 0.1 0.2-0.1 0.3l-6.2 6.2 6.5 6.5 5.6-5.6c0.1-0.1 0.3-0.2 0.5-0.2 0.3 0 0.7 0.2 0.8 0.7 0.4 1.8 1.9 2.9 3.6 2.9 1 0 1.9-0.4 2.6-1.1l6.9-6.9c-2.7-2-4.5-5.2-4.5-8.8 0-6.1 4.9-11 11-11 3.6 0 6.8 1.8 8.8 4.5l6.1-6.1C57.9 15.9 57.9 13.4 56.4 11.9zM0.9 50.1C0.3 50.6 0 51.4 0 52.2c0 0.8 0.3 1.6 0.9 2.2l2.2 2.2c0.6 0.6 1.4 0.9 2.2 0.9s1.6-0.3 2.2-0.9l3.6-3.6 -6.5-6.5L0.9 50.1z" class="a"/></svg>