<svg xmlns="http://www.w3.org/2000/svg" width="512" height="512" viewBox="0 0 310 310"><style>  .a{fill:#D80027;}</style><path d="M304 1c-3-2-60-5-67 23-7 28-14 55-40 44-16-7 0-48 0-48s-19 26-41 30c-27 5 0-26 0-26-55 8-79 42-89 67-3 2-7 4-10 6-3 2-6 4-9 7-1 1-3 2-4 4-3 3-5 5-8 8-1 1-2 3-4 4-2 3-5 6-7 9-4 6-8 13-11 20-1 4-3 7-4 11-1 4-2 7-3 11-1 8-2 15-2 24 0 3 0 7 1 10 0 0 0 1 0 1 0 3 1 6 1 9 0 0 0 1 0 1 1 3 1 6 2 9 0 0 0 1 0 1 1 3 2 6 3 9l0 0 0 1 1 1 0 0c2 5 5 11 8 16 0 0 0 0 0 0 3 5 6 10 10 14 0 0 0 0 0 0 4 4 7 9 11 12 0 0 0 0 0 0 2 2 4 4 6 6 0 0 0 0 0 0 2 2 4 3 6 5 0 0 0 0 1 0 2 2 5 3 7 4 0 0 1 0 1 0 2 1 4 2 7 4 0 0 1 0 1 0 2 1 5 2 7 3 0 0 1 0 1 1 2 1 5 2 7 3 0 0 1 0 1 0 3 1 5 2 8 2 1 0 1 0 2 0 2 1 5 1 7 1 0 0 0 0 1 0 3 0 5 1 8 1 1 0 1 0 2 0 3 0 5 0 8 0 30 0 58-11 78-30 3-2 5-5 8-8 1-1 2-2 3-3 20-11 36-22 37-28 1-13-1-40 20-56 21-16 16-58 16-58-25 42-52-14-26-19 27-5 26-30 11-57C254 23 304 1 304 1zM195 277c-19 17-45 27-72 27-30 0-57-12-77-31l21-18-20-53L15 191l-1 24c-1-7-2-14-2-21 0-15 3-29 8-42l28-34 7-11c3-2 6-4 9-6 17-11 37-17 59-17 1 0 1 0 2 0l12 5 27 4c17 7 33 18 44 33l-4 20 18 50 11 3C232 229 217 257 195 277z" class="a"/><polygon points="165 131 127 96 85 111 74 115 76 165 96 168 134 176 " class="a"/><polygon points="119 260 114 266 142 296 161 288 192 275 200 231 151 224 " class="a"/></svg>