<svg xmlns="http://www.w3.org/2000/svg" viewBox="0 0 60 60" width="512" height="512"><style>  .a{fill:#a9a9ab;}</style><path d="M25 43c0 0 0 0-1 0 0 0-1 0-1 0-1 2-2 2-4 2h-3l1 5h-2l-1-5H9l1 5c-1 0-1 0-2 1l-1-6H4c-1 0-3 1-3 2-1 1 0 3 0 4l2 4c1 1 2 2 3 2h2c1 2 2 4 5 4h10c3 0 5-2 5-5 0 0 0-1 0-1 1-1 1-1 2-2l1-1c0 0 0-1 0-1L25 43z" class="a"/><polygon points="52 13 47 9 42 16 48 20 " class="a"/><path d="M57 5c1-1 1-3 0-4 0 0-1-1-2-1-1 0-2 1-2 1l-4 6L53 11 57 5z" class="a"/><path d="M34 38c0 0 0 1 1 1 0 0 1 0 1 0 0 0 0 0 0 0 0 0 1 0 1 0l11-17-6-4L31 32c0 0 0 1 0 1L34 38z" class="a"/><polygon points="15 25 21 21 16 14 11 18 " class="a"/><polygon points="47 44 44 55 48 55 52 44 " class="a"/><path d="M59 46c0-1-1-2-2-2 0 0 0 0 0 0H54l-3 11h4c1 0 2-1 3-2l2-4C60 49 60 47 59 46z" class="a"/><path d="M41 44c-2 0-4-1-5-3L22 22l-5 4 15 24c2 3 6 5 9 5h1l4-11H41z" class="a"/><path d="M10 16l5-4-4-5C10 6 9 5 8 5c-1 0-1 0-2 1-1 1-1 3 0 4L10 16z" class="a"/></svg>