<?xml version="1.0" encoding="iso-8859-1"?>
<!-- Generator: Adobe Illustrator 19.0.0, SVG Export Plug-In . SVG Version: 6.00 Build 0)  -->
<svg xmlns="http://www.w3.org/2000/svg" xmlns:xlink="http://www.w3.org/1999/xlink" version="1.1" id="Capa_1" x="0px" y="0px" viewBox="0 0 59.662 59.662" style="enable-background:new 0 0 59.662 59.662;" xml:space="preserve" width="512px" height="512px">
<g>
	<g>
		<g>
			<path d="M24.673,42.785c-0.168-0.267-0.448-0.435-0.755-0.452c-0.305-0.015-0.604,0.115-0.801,0.36     c-1.224,1.528-1.631,1.631-3.896,1.638h-3.228l1.021,5h-1.978l-1.021-5H9.222l1.047,5.115c-0.665,0.148-1.273,0.442-1.806,0.841     l-1.219-5.956H3.565c-1.494,0-2.557,0.597-3.159,1.772c-0.553,1.083-0.54,2.453,0.035,3.667l1.704,3.593     c0.632,1.306,1.493,1.968,2.562,1.968h1.836c0.45,2.279,2.404,4,4.74,4h9.676c2.667,0,4.838-2.243,4.838-5     c0-0.444-0.074-0.867-0.18-1.277c0.971-0.694,1.386-1.235,2.164-2.469l0.559-0.889c0.209-0.331,0.208-0.759,0-1.091     L24.673,42.785z" fill="#a9a9ab"/>
			<polygon points="51.844,13.089 46.762,9.27 42.128,15.829 47.699,19.668    " fill="#a9a9ab"/>
			<path d="M56.916,5.038c0.792-1.257,0.639-2.886-0.362-3.871c-0.547-0.539-1.259-0.836-2.006-0.836     c-0.93,0-1.809,0.466-2.346,1.239l-4.299,6.084L52.9,11.41L56.916,5.038z" fill="#a9a9ab"/>
			<path d="M33.963,37.459c0.186,0.262,0.379,0.507,0.575,0.745c0.185,0.223,0.454,0.351,0.736,0.351     c0.021,0,0.042-0.001,0.062-0.002c0.305-0.021,0.582-0.188,0.748-0.452l10.557-16.756l-5.657-3.898L30.821,31.833     c-0.248,0.352-0.248,0.828,0,1.18L33.963,37.459z" fill="#a9a9ab"/>
			<polygon points="15.166,24.631 20.575,20.565 15.658,13.606 11.025,18.057    " fill="#a9a9ab"/>
			<polygon points="47.136,44.331 43.588,55.331 48.321,55.331 51.869,44.331    " fill="#a9a9ab"/>
			<path d="M59.234,46.251c-0.526-1.038-1.455-1.725-2.546-1.882c-0.171-0.025-0.347-0.038-0.525-0.038H53.91l-3.548,11h4.233     c1.146,0,2.378-0.828,2.928-1.966l1.744-3.581C59.806,48.677,59.794,47.355,59.234,46.251z" fill="#a9a9ab"/>
			<path d="M40.51,44.331c-2.269-0.007-3.755-0.863-5.302-3.053L21.716,22.181l-5.492,4.128l15.012,23.828     c2.049,3.253,5.515,5.194,9.271,5.194h1.041l3.548-11H40.51z" fill="#a9a9ab"/>
			<path d="M9.953,16.356l4.556-4.376l-3.818-5.403C10.149,5.797,9.27,5.331,8.34,5.331c-0.746,0-1.458,0.296-2.005,0.835     c-1.002,0.986-1.154,2.615-0.362,3.873L9.953,16.356z" fill="#a9a9ab"/>
		</g>
	</g>
</g>
<g>
</g>
<g>
</g>
<g>
</g>
<g>
</g>
<g>
</g>
<g>
</g>
<g>
</g>
<g>
</g>
<g>
</g>
<g>
</g>
<g>
</g>
<g>
</g>
<g>
</g>
<g>
</g>
<g>
</g>
</svg>
