<svg xmlns="http://www.w3.org/2000/svg" viewBox="0 0 179 179" width="512" height="512"><path d="M118 2c10-1 20-2 28-2 5 0 9 0 14 1 10 1 19 9 19 19 1 11 1 26-2 42L118 2zM2 118c-2 16-2 31-2 42 1 10 9 19 19 19 4 0 9 1 14 1 0 0 0 0 0 0 9 0 18 0 28-2L2 118zM175 74c-5 22-15 46-34 67 0 0 0 0 0 0-21 19-44 29-67 34L4 106c5-22 15-46 34-67 0 0 0 0 0 0 21-19 45-29 67-34L175 74zM127 74l-7-7 6-6c2-2 2-5 0-7-2-2-5-2-7 0l-6 6-7-7c-2-2-5-2-7 0-2 2-2 5 0 7l7 7-8 8-7-7c-2-2-5-2-7 0-2 2-2 5 0 7l7 7-8 8-7-7c-2-2-5-2-7 0-2 2-2 5 0 7l7 7-8 8-7-7c-2-2-5-2-7 0-2 2-2 5 0 7l7 7-6 6c-2 2-2 5 0 7 1 1 2 2 4 2s3 0 4-1l6-6 7 7c1 1 2 2 4 2s3 0 4-1c2-2 2-5 0-7l-7-7 8-8 7 7c1 1 2 2 4 2s3 0 4-1c2-2 2-5 0-7l-7-7 8-8 7 7c1 1 2 2 4 2 1 0 3 0 4-1 2-2 2-5 0-7l-7-7 8-8 7 7c1 1 2 2 4 2 1 0 3 0 4-1C129 79 129 76 127 74z" fill="#a34d22"/></svg>