<svg xmlns="http://www.w3.org/2000/svg" viewBox="0 0 512 512"><path d="M289 22c-13 0-24 5-33 13-9-8-20-13-33-13-28 0-50 23-50 50s23 50 50 50c13 0 25-5 33-13 9 8 21 13 33 13 28 0 50-22 50-50S317 22 289 22zM223 89c-9 0-17-7-17-17s8-17 17-17c9 0 17 8 17 17S232 89 223 89zM289 89c-9 0-17-7-17-17s8-17 17-17c9 0 17 8 17 17S299 89 289 89z" fill="#FF9F19"/><path d="M289 123c28 0 50-22 50-50S317 22 289 22c-13 0-24 5-33 13v74C265 118 277 123 289 123zM289 56c9 0 17 8 17 17s-7 17-17 17c-9 0-17-7-17-17S280 56 289 56z" fill="#F28618"/><path d="M428 189H84c-9 0-17-7-17-17v-33c0-28 23-50 50-50h278c28 0 50 23 50 50v33C445 182 438 189 428 189z" fill="#FFE14D"/><path d="M395 89H256v100h172c9 0 17-7 17-17v-33C445 112 423 89 395 89z" fill="#FC3"/><path d="M445 490H67c-36 0-66-29-67-64-3-96 11-175 67-269 0 0 378 0 378 0 56 95 70 173 66 269C510 461 481 490 445 490z" fill="#E6563A"/><path d="M256 490h189c36 0 66-29 67-64 3-96-11-175-66-269 0 0-95 0-189 0L256 490 256 490z" fill="#D9472B"/></svg>