<?xml version="1.0" encoding="iso-8859-1"?>
<!-- Generator: Adobe Illustrator 19.0.0, SVG Export Plug-In . SVG Version: 6.00 Build 0)  -->
<svg version="1.1" id="Layer_1" xmlns="http://www.w3.org/2000/svg" xmlns:xlink="http://www.w3.org/1999/xlink" x="0px" y="0px"
	 viewBox="0 0 512 512" style="enable-background:new 0 0 512 512;" xml:space="preserve">
<path style="fill:#FF9F19;" d="M289.375,22.37c-12.869,0-24.498,5.015-33.376,13.021c-8.878-8.006-20.507-13.021-33.376-13.021
	c-27.606,0-50.064,22.457-50.064,50.064s22.458,50.064,50.064,50.064c12.869,0,24.498-5.015,33.376-13.021
	c8.878,8.006,20.507,13.021,33.376,13.021c27.606,0,50.064-22.457,50.064-50.064S316.982,22.37,289.375,22.37z M222.623,89.121
	c-9.202,0-16.688-7.486-16.688-16.688s7.486-16.688,16.688-16.688c9.202,0,16.688,7.486,16.688,16.688
	S231.826,89.121,222.623,89.121z M289.375,89.121c-9.202,0-16.688-7.486-16.688-16.688s7.486-16.688,16.688-16.688
	c9.202,0,16.688,7.486,16.688,16.688S298.578,89.121,289.375,89.121z"/>
<path style="fill:#F28618;" d="M289.375,122.497c27.606,0,50.064-22.457,50.064-50.064S316.981,22.37,289.375,22.37
	c-12.869,0-24.498,5.015-33.376,13.021v74.085C264.877,117.482,276.506,122.497,289.375,122.497z M289.375,55.746
	c9.202,0,16.688,7.486,16.688,16.688s-7.486,16.688-16.688,16.688c-9.202,0-16.688-7.486-16.688-16.688
	S280.173,55.746,289.375,55.746z"/>
<path style="fill:#FFE14D;" d="M428.441,189.249H83.557c-9.213,0-16.688-7.475-16.688-16.688v-33.376
	c0-27.606,22.458-50.064,50.064-50.064h278.132c27.606,0,50.064,22.457,50.064,50.064v33.376
	C445.129,181.774,437.655,189.249,428.441,189.249z"/>
<path style="fill:#FFCC33;" d="M395.065,89.121H255.999v100.128h172.442c9.213,0,16.688-7.475,16.688-16.688v-33.376
	C445.129,111.578,422.672,89.121,395.065,89.121z"/>
<path style="fill:#E6563A;" d="M444.687,489.631H67.311c-36.001,0-65.629-28.563-66.864-64.543
	c-3.301-96.203,10.986-174.714,66.469-269.196c0.007-0.011,378.266-0.019,378.266-0.019c55.491,94.477,69.67,172.991,66.369,269.213
	C510.317,461.066,480.69,489.631,444.687,489.631z"/>
<path style="fill:#D9472B;" d="M255.999,489.631h188.688c36.001,0,65.629-28.564,66.864-64.544
	c3.301-96.221-10.879-174.737-66.369-269.213c0,0-94.599,0.002-189.183,0.006L255.999,489.631L255.999,489.631z"/>
<g>
</g>
<g>
</g>
<g>
</g>
<g>
</g>
<g>
</g>
<g>
</g>
<g>
</g>
<g>
</g>
<g>
</g>
<g>
</g>
<g>
</g>
<g>
</g>
<g>
</g>
<g>
</g>
<g>
</g>
</svg>
