<svg xmlns="http://www.w3.org/2000/svg" viewBox="0 0 58 58"><style>  .a{fill:#D19D18;}.b{fill:#FCC62D;}.c{fill:#E4AF18;}.d{fill:#6B5B46;}</style><path d="M33 18c-1 0-3 0-3-1 0 0 0-1 0-1 0 0 1 0 1 0 1 1 3 1 4 0 0 0 1 0 1 0 0 0 0 1 0 1C35 18 34 18 33 18" fill="#4C4031"/><path d="M39 40L39 40v0-4c0-1 3-2 6-3-1-3-3-5-6-7l-7-5c0 0-1-1-1-1-1-2-1-3-1-5l0-5c0 0 0-1 0-1 0 0 0-1 0-1 0 0 0 0 0-1 0-1 1-2 1-2 0 0 0 0 1-1 1-1 1-3-1-3-1 0-2 0-2 0 0 0 0 0 0 0 0 0 0 0-1 0-1 0-2 0-3 1 0 0-1 0-1 0 0 0-1 0-1 0-1-1-3-1-4-1-1 0-2 0-2 1-1 1-2 2-1 3 0 0 0 0 0 0 0 0 0 0 0 0 0 0 0 0 1 1 1 1 1 2 1 2 0 0 0 1 0 2 0 0 0 1 0 1v4c0 2 0 4-1 6 0 0-1 1-1 1l-7 5c-7 6-9 15-5 23 2 3 4 6 7 6C10 55 10 55 10 55h20c0 0 0-1-1-1 0 0 0 0 0 0 7 0 11-4 9-10V40z" fill="#C7B6A1"/><path d="M48 42c-5 0-9-1-9-2v4c0 1 4 2 9 2 5 0 9-1 9-2v-4C57 41 53 42 48 42" class="a"/><path d="M39 40L39 40 39 40z" class="a"/><path d="M57 40L57 40 57 40z" class="a"/><path d="M57 36c0 1-4 2-9 2-5 0-9-1-9-2 0-1 4-3 9-3C53 33 57 35 57 36" class="b"/><path d="M48 38c-5 0-9-1-9-2v4c0 1 4 2 9 2 5 0 9-1 9-2v-4C57 37 53 38 48 38" class="c"/><path d="M39 36L39 36 39 36z" class="c"/><path d="M57 36L57 36 57 36z" class="c"/><path d="M30 17h-13c-1 0-1 0-1-1 0-1 0-1 1-1h13c1 0 1 0 1 1C31 17 31 17 30 17" class="d"/><path d="M30 14h-13c-1 0-1 0-1-1s0-1 1-1h13c1 0 1 0 1 1S31 14 30 14" class="d"/><path d="M30 11h-13c-1 0-1 0-1-1s0-1 1-1h13c1 0 1 0 1 1S31 11 30 11" class="d"/><path d="M48 54c-2 0-4 0-5 0 0 1-1 3-2 3 2 1 5 1 8 1 5 0 9-1 9-2v-4C57 53 53 54 48 54" class="c"/><path d="M48 46c-5 0-9-1-9-2v1c2 1 3 3 4 5 2 0 3 0 5 0 5 0 9-1 9-2v-4C57 45 53 46 48 46" class="c"/><path d="M48 50c-2 0-4 0-5 0 0 1 0 1 0 2 0 1 0 2 0 2 2 0 3 0 5 0 5 0 9-1 9-2v-4C57 49 53 50 48 50" class="a"/><path d="M43 51c0 4-3 7-7 7-4 0-7-3-7-7s3-7 7-7C40 44 43 47 43 51" class="b"/><path d="M8 41c-1 0-1 0-1-1 0-7 8-15 14-15 1 0 1 0 1 1 0 1 0 1-1 1-5 0-12 7-12 13C9 41 9 41 8 41" fill="#DBCCBA"/></svg>