<?xml version="1.0" encoding="iso-8859-1"?>
<!-- Generator: Adobe Illustrator 19.0.0, SVG Export Plug-In . SVG Version: 6.00 Build 0)  -->
<svg version="1.1" id="Capa_1" xmlns="http://www.w3.org/2000/svg" xmlns:xlink="http://www.w3.org/1999/xlink" x="0px" y="0px"
	 viewBox="0 0 512 512" style="enable-background:new 0 0 512 512;" xml:space="preserve">
<path style="fill:#B29A7E;" d="M422.234,109.714L9.974,69.818v372.364c0,22.035,17.861,39.896,39.896,39.896h412.26V109.714H422.234
	z"/>
<g>
	<polygon style="fill:#A58868;" points="422.234,109.714 9.974,69.818 9.974,74.966 369.039,109.714 408.935,109.714 
		408.935,482.078 462.13,482.078 462.13,109.714 	"/>
	<path style="fill:#A58868;" d="M422.234,29.922H49.87c-22.035,0-39.896,17.861-39.896,39.896l0,0
		c0,22.035,17.861,39.896,39.896,39.896h372.364V29.922z"/>
</g>
<rect x="369.039" y="29.922" style="fill:#947859;" width="53.195" height="79.792"/>
<rect x="302.545" y="242.701" style="fill:#F8E99B;" width="199.481" height="106.39"/>
<rect x="448.831" y="242.701" style="fill:#F6E27D;" width="53.195" height="106.39"/>
<path d="M502.026,232.727h-29.922V109.714c0-5.508-4.464-9.974-9.974-9.974H49.87c-16.498,0-29.922-13.422-29.922-29.922
	S33.372,39.896,49.87,39.896h362.39v29.922c0,5.508,4.464,9.974,9.974,9.974c5.51,0,9.974-4.466,9.974-9.974V29.922
	c0-5.508-4.464-9.974-9.974-9.974H49.87C22.371,19.948,0,42.319,0,69.818v372.364c0,27.499,22.371,49.87,49.87,49.87h412.26
	c5.51,0,9.974-4.466,9.974-9.974v-79.792c0-5.508-4.464-9.974-9.974-9.974c-5.51,0-9.974,4.466-9.974,9.974v69.818H49.87
	c-16.498,0-29.922-13.422-29.922-29.922V109.688c8.341,6.276,18.705,10.001,29.922,10.001h402.286v113.039h-149.61
	c-5.51,0-9.974,4.466-9.974,9.974v106.39c0,5.508,4.464,9.974,9.974,9.974h199.481c5.51,0,9.974-4.466,9.974-9.974v-106.39
	C512,237.193,507.536,232.727,502.026,232.727z M492.052,339.117H312.519v-86.442h179.532V339.117z"/>
<path d="M355.74,319.169c12.832,0,23.273-10.441,23.273-23.273c0-12.832-10.441-23.273-23.273-23.273
	c-12.832,0-23.273,10.441-23.273,23.273C332.468,308.728,342.908,319.169,355.74,319.169z"/>
<path d="M49.87,59.844c-5.51,0-9.974,4.466-9.974,9.974c0,5.508,4.464,9.974,9.974,9.974h319.169c5.51,0,9.974-4.466,9.974-9.974
	c0-5.508-4.464-9.974-9.974-9.974H49.87z"/>
<g>
</g>
<g>
</g>
<g>
</g>
<g>
</g>
<g>
</g>
<g>
</g>
<g>
</g>
<g>
</g>
<g>
</g>
<g>
</g>
<g>
</g>
<g>
</g>
<g>
</g>
<g>
</g>
<g>
</g>
</svg>
